<svg xmlns="http://www.w3.org/2000/svg" width="900" height="450" viewBox="0 0 900 450">
<rect width="100%" height="100%" fill="#ffffff"/>
<text x="450.0" y="32" text-anchor="middle" font-family="Arial" font-size="18" font-weight="600" fill="#16191C">Top Reason Codes</text>
<text x="188" y="76.9" text-anchor="end" font-family="Arial" font-size="12" fill="#27343b">declining_with_demand</text>
<rect x="200" y="60.0" width="640.0" height="26.0" fill="#B4552F" rx="4"/>
<text x="848.0" y="76.9" font-family="Arial" font-size="12" fill="#27343b">13,152</text>
<text x="188" y="112.9" text-anchor="end" font-family="Arial" font-size="12" fill="#27343b">visible_model_opportunity</text>
<rect x="200" y="96.0" width="564.6" height="26.0" fill="#B4552F" rx="4"/>
<text x="772.6" y="112.9" font-family="Arial" font-size="12" fill="#27343b">11,602</text>
<text x="188" y="148.9" text-anchor="end" font-family="Arial" font-size="12" fill="#27343b">model_decline_risk</text>
<rect x="200" y="132.0" width="529.7" height="26.0" fill="#B4552F" rx="4"/>
<text x="737.7" y="148.9" font-family="Arial" font-size="12" fill="#27343b">10,885</text>
<text x="188" y="184.9" text-anchor="end" font-family="Arial" font-size="12" fill="#27343b">low_ctr_visible_page</text>
<rect x="200" y="168.0" width="474.9" height="26.0" fill="#B4552F" rx="4"/>
<text x="682.9" y="184.9" font-family="Arial" font-size="12" fill="#27343b">9,759</text>
<text x="188" y="220.9" text-anchor="end" font-family="Arial" font-size="12" fill="#27343b">page_one_decay_risk</text>
<rect x="200" y="204.0" width="344.3" height="26.0" fill="#B4552F" rx="4"/>
<text x="552.3" y="220.9" font-family="Arial" font-size="12" fill="#27343b">7,076</text>
<text x="188" y="256.9" text-anchor="end" font-family="Arial" font-size="12" fill="#27343b">general_refresh_review</text>
<rect x="200" y="240.0" width="322.3" height="26.0" fill="#B4552F" rx="4"/>
<text x="530.3" y="256.9" font-family="Arial" font-size="12" fill="#27343b">6,624</text>
<text x="188" y="292.9" text-anchor="end" font-family="Arial" font-size="12" fill="#27343b">low_engagement_visible_page</text>
<rect x="200" y="276.0" width="316.7" height="26.0" fill="#B4552F" rx="4"/>
<text x="524.7" y="292.9" font-family="Arial" font-size="12" fill="#27343b">6,508</text>
<text x="188" y="328.9" text-anchor="end" font-family="Arial" font-size="12" fill="#27343b">growing_asset_protect</text>
<rect x="200" y="312.0" width="112.7" height="26.0" fill="#B4552F" rx="4"/>
<text x="320.7" y="328.9" font-family="Arial" font-size="12" fill="#27343b">2,317</text>
<text x="188" y="364.9" text-anchor="end" font-family="Arial" font-size="12" fill="#27343b">thin_visible_page</text>
<rect x="200" y="348.0" width="4.0" height="26.0" fill="#B4552F" rx="4"/>
<text x="212.0" y="364.9" font-family="Arial" font-size="12" fill="#27343b">82</text>
<text x="188" y="400.9" text-anchor="end" font-family="Arial" font-size="12" fill="#27343b">stale_visible_page</text>
<rect x="200" y="384.0" width="0.8" height="26.0" fill="#B4552F" rx="4"/>
<text x="208.8" y="400.9" font-family="Arial" font-size="12" fill="#27343b">17</text>
</svg>